<svg class="dc" version="1.1" id="Layer_1" xmlns="http://www.w3.org/2000/svg" xmlns:xlink="http://www.w3.org/1999/xlink" x="0px" y="0px" viewBox="0 0 512 512" style="enable-background:new 0 0 512 512;" xml:space="preserve"><path d="M512,256.8l-67.2-54.232L488,127.6l-91.2-8l-8-87.728L312,68.584L259.2,0l-49.6,70.184l-80-41.472l-4.8,90.912l-89.6,4.8 l33.6,86.12L0,252l70.4,52.632l-35.2,74.984l88,9.6l4.8,89.288l81.6-38.28L264,512l48-71.776l75.2,36.688l6.4-89.32l88-1.6 l-32-73.368L512,256.8z"></path><g><path style="fill:#FFFFFF;" d="M232.88,268c0,37.936-26.28,54.464-51.072,54.464c-27.768,0-49.168-20.344-49.168-52.8 c0-34.328,22.464-54.464,50.856-54.464C212.952,215.248,232.88,236.656,232.88,268z M151.504,269.064 c0,22.464,12.92,39.416,31.152,39.416c17.808,0,31.16-16.744,31.16-39.832c0-17.384-8.696-39.424-30.728-39.424 s-31.584,20.376-31.584,39.856L151.504,269.064L151.504,269.064z"></path><path style="fill:#FFFFFF;" d="M319.768,320.152v-88.368h-43.024v88.368h-18.4v-88.368h-14.4V217.6h14.4v-3.392 c-0.936-12.704,3.184-25.264,11.448-34.96c6.952-6.576,16.288-10.024,25.848-9.536c5.088,0.048,10.096,1.28,14.624,3.6 l-3.864,13.752c-3.456-1.6-7.216-2.464-11.024-2.536c-14.624,0-18.648,12.504-18.648,28.608v4.464h43.024v-4.864 c-0.992-13.088,3.368-26.008,12.08-35.824c6.72-6.264,15.616-9.68,24.8-9.528c5.44-0.04,10.84,0.968,15.896,2.968l-2.336,14.4 c-3.816-1.632-7.936-2.432-12.08-2.328c-15.68,0-19.92,13.984-19.92,29.664v5.512h24.8v14.2H338.4v88.352H319.768z"></path></g></svg>
<svg class="dop" id="Layer_1" enable-background="new 0 0 512.011 512.011" viewBox="0 0 512.011 512.011" xmlns="http://www.w3.org/2000/svg"><g><path d="m410.409 117.142h-68.636v61.889h-30v-61.889h-111.535v61.889h-30v-61.889h-68.636l-9.463 92.979h327.733z"></path><path d="m200.238 85.768c0-30.75 25.017-55.768 55.768-55.768s55.768 25.018 55.768 55.768v31.352h30v-31.352c-.001-47.292-38.476-85.768-85.769-85.768s-85.768 38.476-85.768 85.768v31.352h30v-31.352z"></path><path d="m64.4 482.682h143.043v-62.093h-65.039l113.601-149.298 113.602 149.298h-65.039v62.093h143.043l-24.686-242.561h-333.839z"></path><path d="m237.443 512.011h37.125v-121.422h34.515l-53.078-69.755-53.077 69.755h34.515z"></path></g></svg>
<svg class="sbp" viewBox="0 0 25 25" xmlns="http://www.w3.org/2000/svg"><g id="Layer_22" data-name="Layer 22"><path d="m18.5 5h-12a1.5 1.5 0 0 0 -1.5 1.5v4.5h15v-4.5a1.5 1.5 0 0 0 -1.5-1.5z"></path><path d="m5 18.5a1.5 1.5 0 0 0 1.5 1.5h12a1.5 1.5 0 0 0 1.5-1.5v-4.5h-15z"></path><path d="m20.5 13a.5.5 0 0 0 0-1h-16a.5.5 0 0 0 0 1z"></path><path d="m2.5 10a.5.5 0 0 0 .5-.5v-6a.5.5 0 0 1 .5-.5h6a.5.5 0 0 0 0-1h-6a1.5 1.5 0 0 0 -1.5 1.5v6a.5.5 0 0 0 .5.5z"></path><path d="m21.5 2h-6a.5.5 0 0 0 0 1h6a.5.5 0 0 1 .5.5v6a.5.5 0 0 0 1 0v-6a1.5 1.5 0 0 0 -1.5-1.5z"></path><path d="m22.5 15a.5.5 0 0 0 -.5.5v6a.5.5 0 0 1 -.5.5h-6a.5.5 0 0 0 0 1h6a1.5 1.5 0 0 0 1.5-1.5v-6a.5.5 0 0 0 -.5-.5z"></path><path d="m9.5 22h-6a.5.5 0 0 1 -.5-.5v-6a.5.5 0 0 0 -1 0v6a1.5 1.5 0 0 0 1.5 1.5h6a.5.5 0 0 0 0-1z"></path></g></svg>